<svg width="128" height="128" viewBox="0 0 128 128" fill="none" xmlns="http://www.w3.org/2000/svg">
<rect width="128" height="128" fill="#333333"/>
<path d="M72 49V48.5H71.5H41.5H41V49V54V54.5H41.5H71.5H72V54V49ZM72 59V58.5H71.5H41.5H41V59V64V64.5H41.5H71.5H72V64V59ZM41 74V74.5H41.5H61.5H62V74V69V68.5H61.5H41.5H41V69V74ZM76.5 48.5H76V49V68.7713C75.366 68.6017 74.6923 68.5 74 68.5C69.5739 68.5 66 72.0739 66 76.5C66 80.9261 69.5739 84.5 74 84.5C78.4261 84.5 82 80.9261 82 76.5V54.5H89H89.5V54V49V48.5H89H76.5Z" stroke="#F2F2F2"/>
</svg>
