<svg width="128" height="128" viewBox="0 0 128 128" fill="none" xmlns="http://www.w3.org/2000/svg">
<circle cx="64" cy="64" r="64" fill="#333333"/>
<path d="M73.5 54C73.5 59.2489 69.2489 63.5 64 63.5C58.7511 63.5 54.5 59.2489 54.5 54C54.5 48.7511 58.7511 44.5 64 44.5C69.2489 44.5 73.5 48.7511 73.5 54ZM44.5 79C44.5 77.5211 45.2368 76.1888 46.5254 74.9995C47.8174 73.807 49.6305 72.7925 51.6828 71.9704C55.7882 70.3258 60.725 69.5 64 69.5C67.275 69.5 72.2118 70.3258 76.3172 71.9704C78.3695 72.7925 80.1826 73.807 81.4746 74.9995C82.7631 76.1888 83.5 77.5211 83.5 79V83.5H44.5V79Z" stroke="#F2F2F2"/>
</svg>
