<svg width="24" height="24" viewBox="0 0 24 24" fill="none" xmlns="http://www.w3.org/2000/svg">
<path fill-rule="evenodd" clip-rule="evenodd" d="M24 12.0001C24 18.6275 18.6275 24 12 24C5.37258 24 0 18.6275 0 12.0001C0 5.37259 5.37258 0 12 0C18.6275 0 24 5.37259 24 12.0001ZM19.1465 10.6495C19.8888 11.076 20.7949 10.5281 20.7991 9.52232C20.7957 9.26443 20.6212 8.94291 20.2731 8.71998C20.1387 8.63396 19.9984 8.55648 19.8574 8.48145C17.3484 7.14605 14.6356 6.59243 11.8311 6.39396C10.5529 6.30352 9.27552 6.32909 8.00056 6.44863C6.84164 6.55724 5.69613 6.74672 4.57909 7.08236C3.92608 7.27858 3.58536 7.87323 3.76369 8.48337C3.94448 9.10184 4.5396 9.41558 5.19635 9.23609C8.26181 8.3983 11.3527 8.417 14.4546 8.98224C16.1061 9.28325 17.6814 9.8082 19.1465 10.6495ZM17.5367 12.1263C15.1538 10.9745 12.6249 10.4785 9.99108 10.4665C9.12736 10.4475 8.27043 10.5225 7.41789 10.6442C6.67129 10.7508 5.93497 10.9116 5.21284 11.1301C4.68757 11.289 4.40485 11.7965 4.55044 12.2944C4.69785 12.7984 5.20342 13.078 5.72639 12.9263C7.70445 12.3527 9.71599 12.2175 11.7583 12.4398C13.8553 12.6681 15.8439 13.2309 17.6672 14.3192C18.1427 14.603 18.6878 14.4701 18.9679 14.0166C19.2443 13.5692 19.1111 13.0185 18.6328 12.727C18.2774 12.5103 17.9115 12.3074 17.5367 12.1263ZM17.4069 17.5931C17.7955 17.2283 17.7101 16.6736 17.2145 16.3648C15.0776 15.0333 12.7301 14.3981 10.2351 14.3411C8.7122 14.3236 7.86639 14.3626 5.71621 14.8657C5.29851 14.9635 5.00518 15.3411 5.08741 15.7377C5.17709 16.1702 5.55554 16.4272 6.0051 16.3343C6.72639 16.1851 7.45223 16.0708 8.18446 15.9939C9.71152 15.8335 11.2305 15.868 12.7385 16.1778C14.0722 16.4518 15.3204 16.94 16.4762 17.6632C16.8031 17.8678 17.1492 17.8349 17.4069 17.5931Z" fill="#4F4F4F"/>
</svg>
